<svg width="160" height="160" viewBox="0 0 160 160" fill="none" xmlns="http://www.w3.org/2000/svg">
    <rect width="160" height="160" rx="26" fill="#3444F2" />
    <g clip-path="url(#clip0_301_595)">
        <path fill-rule="evenodd" clip-rule="evenodd"
            d="M30.1695 52.5424C24.553 52.5424 20 57.0954 20 62.7119V97.2881C20 102.905 24.553 107.458 30.1695 107.458H42.3729V95.2542C42.3729 84.0215 51.4789 74.9152 62.7119 74.9152H74.9153V62.7119C74.9153 57.0954 70.3622 52.5424 64.7458 52.5424H30.1695Z"
            fill="white" />
        <path
            d="M97.2882 85.0847H62.712C57.0955 85.0847 52.5425 89.6378 52.5425 95.2542V129.83C52.5425 135.447 57.0955 140 62.712 140H97.2882C102.905 140 107.458 135.447 107.458 129.83V95.2542C107.458 89.6378 102.905 85.0847 97.2882 85.0847Z"
            fill="white" />
        <path
            d="M85.0847 30.1695C85.0847 24.553 89.6376 20 95.2542 20H129.83C135.447 20 140 24.553 140 30.1695V64.7458C140 70.3622 135.447 74.9153 129.83 74.9153H85.0847V30.1695Z"
            fill="white" />
    </g>
    <defs>
        <clipPath id="clip0_301_595">
            <rect width="120" height="120" fill="white" transform="translate(20 20)" />
        </clipPath>
    </defs>
</svg>