<svg width="369" height="369" viewBox="0 0 369 369" fill="none" xmlns="http://www.w3.org/2000/svg">
    <rect width="369" height="369" fill="#F1F5F9" />
    <path
        d="M200.25 164.667H200.301M139.25 205.332L164.667 179.916C169.384 175.376 175.199 175.376 179.917 179.916L205.333 205.332M195.167 195.166L200.25 190.082C204.967 185.543 210.783 185.543 215.5 190.082L230.75 205.332M139.25 154.5C139.25 150.455 140.857 146.577 143.717 143.717C146.577 140.857 150.455 139.25 154.5 139.25H215.5C219.545 139.25 223.423 140.857 226.283 143.717C229.143 146.577 230.75 150.455 230.75 154.5V215.5C230.75 219.545 229.143 223.423 226.283 226.283C223.423 229.143 219.545 230.75 215.5 230.75H154.5C150.455 230.75 146.577 229.143 143.717 226.283C140.857 223.423 139.25 219.545 139.25 215.5V154.5Z"
        stroke="#65758B" stroke-width="8" stroke-linecap="round" stroke-linejoin="round" />
</svg>