<svg width="340" height="33" viewBox="0 0 340 33" fill="none" xmlns="http://www.w3.org/2000/svg">
    <g clip-path="url(#clip0_326_2636)">
        <path
            d="M2.55873 0.957031H47.3364C48.7496 0.957031 49.8951 2.10321 49.8951 3.51703V30.397C49.8951 31.8109 48.7496 32.957 47.3364 32.957H2.55873C1.14561 32.957 0 31.8109 0 30.397V3.51703C0 2.10321 1.14561 0.957031 2.55873 0.957031Z"
            fill="#16366F" />
        <path
            d="M28.722 16.9572C28.722 23.3024 23.5809 28.4452 17.2391 28.4452C10.8973 28.4452 5.75684 23.3021 5.75684 16.9572C5.75684 10.6127 10.8974 5.46924 17.2391 5.46924C23.5807 5.46924 28.722 10.6129 28.722 16.9572Z"
            fill="#D9222A" />
        <path
            d="M32.655 5.46875C29.6881 5.46875 26.9846 6.59489 24.9468 8.44257C24.5316 8.81947 24.1441 9.22574 23.7874 9.65832H26.1072C26.4249 10.0447 26.7172 10.4511 26.9827 10.8751H22.912C22.6672 11.2669 22.4463 11.6732 22.2505 12.0917H27.6438C27.8289 12.4875 27.9912 12.8936 28.13 13.3079H21.7644C21.6306 13.707 21.5193 14.1131 21.4307 14.5245H28.4633C28.6353 15.3239 28.722 16.1393 28.7218 16.957C28.7218 18.2328 28.5137 19.4602 28.1299 20.6063H21.7643C21.9027 21.0209 22.0649 21.4271 22.2501 21.8229H27.6437C27.4477 22.2415 27.2266 22.6478 26.9818 23.0398H22.9118C23.1776 23.464 23.4703 23.8704 23.7873 24.2555H26.1066C25.7503 24.6889 25.3627 25.0956 24.9469 25.4723C26.9849 27.3198 29.6881 28.4453 32.655 28.4453C38.9967 28.4453 44.1379 23.3022 44.1379 16.9573C44.1379 10.613 38.9968 5.46933 32.655 5.46933"
            fill="#EE9F2D" />
        <path
            d="M42.6079 23.361C42.6079 23.1561 42.7737 22.9897 42.9787 22.9897C43.1836 22.9897 43.3494 23.1561 43.3494 23.361C43.3494 23.5657 43.1836 23.7321 42.9787 23.7321C42.7738 23.732 42.6079 23.5658 42.6079 23.361ZM42.9787 23.6431C43.1344 23.643 43.2606 23.5167 43.2607 23.361C43.2607 23.2052 43.1345 23.0791 42.9789 23.0791H42.9787C42.8233 23.0788 42.6972 23.2047 42.697 23.3602V23.361C42.6968 23.5167 42.8228 23.643 42.9784 23.6431C42.9784 23.6431 42.9785 23.6431 42.9787 23.6431ZM42.9286 23.524H42.8526V23.198H42.9901C43.0189 23.198 43.0481 23.198 43.0735 23.2143C43.1 23.2321 43.1149 23.2635 43.1149 23.2961C43.1149 23.3325 43.0933 23.3667 43.0584 23.38L43.1183 23.524H43.0342L42.9843 23.395H42.9287L42.9286 23.524ZM42.9286 23.3391H42.9707C42.9864 23.3391 43.0029 23.3403 43.0171 23.3327C43.0296 23.3247 43.036 23.3097 43.036 23.2953C43.036 23.2828 43.0283 23.2684 43.0176 23.2623C43.0043 23.2539 42.9833 23.2558 42.9691 23.2558H42.9286V23.3391ZM14.5587 18.215C14.4279 18.1999 14.3703 18.1958 14.2805 18.1958C13.5739 18.1958 13.2162 18.4383 13.2162 18.9169C13.2162 19.212 13.3909 19.3999 13.6632 19.3999C14.171 19.3999 14.5369 18.916 14.5587 18.215ZM15.4652 20.3268H14.4324L14.4561 19.8355C14.1411 20.2238 13.7207 20.4083 13.1496 20.4083C12.4739 20.4083 12.0107 19.8803 12.0107 19.1137C12.0107 17.9601 12.8164 17.2871 14.1995 17.2871C14.3407 17.2871 14.5219 17.2999 14.7075 17.3235C14.7462 17.1673 14.7563 17.1004 14.7563 17.0163C14.7563 16.7022 14.539 16.5851 13.9567 16.5851C13.3469 16.5782 12.8439 16.7304 12.6373 16.7985C12.6504 16.7197 12.81 15.7323 12.81 15.7323C13.4313 15.5502 13.841 15.4817 14.3021 15.4817C15.3725 15.4817 15.9394 15.9624 15.9384 16.8712C15.9404 17.1147 15.9002 17.4152 15.8373 17.8102C15.7291 18.497 15.497 19.9681 15.4652 20.3268ZM11.4891 20.3268H10.2425L10.9566 15.847L9.36215 20.3268H8.51265L8.40774 15.8726L7.65714 20.3268H6.49023L7.46498 14.4993H9.25737L9.36611 17.7611L10.4595 14.4993H12.4532L11.4891 20.3268ZM34.1965 18.215C34.0662 18.1999 34.0083 18.1958 33.9187 18.1958C33.2125 18.1958 32.8547 18.4383 32.8547 18.9169C32.8547 19.212 33.0291 19.3999 33.3014 19.3999C33.8092 19.3999 34.1754 18.916 34.1965 18.215ZM35.1038 20.3268H34.071L34.0943 19.8355C33.7793 20.2238 33.3587 20.4083 32.7881 20.4083C32.1122 20.4083 31.6495 19.8803 31.6495 19.1137C31.6495 17.9601 32.4546 17.2871 33.838 17.2871C33.9792 17.2871 34.1602 17.2999 34.3455 17.3235C34.3841 17.1673 34.3943 17.1004 34.3943 17.0163C34.3943 16.7022 34.1773 16.5851 33.5949 16.5851C32.9851 16.5782 32.4827 16.7304 32.2753 16.7985C32.2884 16.7197 32.4486 15.7323 32.4486 15.7323C33.0699 15.5502 33.4793 15.4817 33.9398 15.4817C35.0107 15.4817 35.5776 15.9624 35.5766 16.8712C35.5787 17.1147 35.5384 17.4152 35.4755 17.8102C35.3679 18.497 35.1352 19.9681 35.1038 20.3268ZM21.0058 20.2548C20.6646 20.3623 20.3986 20.4083 20.1103 20.4083C19.4729 20.4083 19.1252 20.0419 19.1252 19.3672C19.1161 19.1579 19.2168 18.607 19.2959 18.1041C19.3679 17.6614 19.8365 14.8701 19.8365 14.8701H21.0756L20.9309 15.5875H21.6793L21.5103 16.7265H20.7592C20.6152 17.6278 20.4103 18.7505 20.4079 18.8993C20.4079 19.1435 20.5382 19.2502 20.8346 19.2502C20.9766 19.2502 21.0867 19.2357 21.1707 19.2054L21.0058 20.2548ZM24.8049 20.2164C24.3793 20.3465 23.9686 20.4095 23.5333 20.4084C22.1463 20.407 21.4232 19.6822 21.4232 18.2943C21.4232 16.6743 22.3431 15.4817 23.5917 15.4817C24.6133 15.4817 25.2658 16.1494 25.2658 17.1967C25.2658 17.5441 25.221 17.8833 25.1131 18.3622H22.6455C22.5621 19.0497 23.0018 19.3361 23.7225 19.3361C24.1662 19.3361 24.5662 19.2446 25.011 19.0377L24.8049 20.2164ZM24.1085 17.4068C24.1154 17.308 24.2399 16.5609 23.532 16.5609C23.1372 16.5609 22.855 16.8619 22.7401 17.4068H24.1085ZM16.2136 17.0857C16.2136 17.6852 16.5041 18.0985 17.1629 18.409C17.6678 18.6463 17.7459 18.7167 17.7459 18.9318C17.7459 19.2273 17.5233 19.3606 17.0299 19.3606C16.6582 19.3606 16.3122 19.3026 15.9132 19.1738C15.9132 19.1738 15.7492 20.2182 15.7418 20.2682C16.0251 20.33 16.2778 20.3873 17.039 20.4084C18.3543 20.4084 18.9618 19.9073 18.9618 18.8244C18.9618 18.1732 18.7075 17.791 18.0831 17.5039C17.5604 17.2639 17.5004 17.2102 17.5004 16.9889C17.5004 16.7327 17.7075 16.602 18.1105 16.602C18.3552 16.602 18.6894 16.6281 19.006 16.6732L19.1836 15.574C18.8608 15.5228 18.3714 15.4817 18.0865 15.4817C16.692 15.4817 16.2093 16.2105 16.2136 17.0857ZM30.868 15.6063C31.2143 15.6063 31.5371 15.6971 31.9819 15.9211L32.1858 14.6564C32.0032 14.5847 31.3603 14.1636 30.8158 14.1636C29.9816 14.1636 29.2764 14.5777 28.7804 15.2612C28.0569 15.0214 27.7595 15.506 27.3949 15.9887L27.0711 16.0641C27.0956 15.9052 27.1178 15.7473 27.1103 15.5876H25.9655C25.8091 17.0543 25.5319 18.5399 25.3149 20.0084L25.2584 20.3268H26.5055C26.7136 18.9737 26.8278 18.1073 26.897 17.521L27.3667 17.2596C27.4368 16.9985 27.6564 16.9103 28.0969 16.9209C28.0377 17.2414 28.0081 17.5666 28.0085 17.8927C28.0085 19.4431 28.8446 20.4084 30.1866 20.4084C30.5323 20.4084 30.829 20.3628 31.2882 20.2383L31.5077 18.9097C31.0944 19.1132 30.7553 19.209 30.4483 19.209C29.7237 19.209 29.2852 18.6738 29.2852 17.7892C29.2851 16.506 29.9373 15.6063 30.868 15.6063Z"
            fill="black" />
        <path
            d="M11.8475 19.9805H10.6007L11.3152 15.5013L9.7208 19.9805H8.87118L8.76614 15.5269L8.0156 19.9805H6.84863L7.82338 14.1538H9.61577L9.66617 17.761L10.8754 14.1538H12.8116L11.8475 19.9805Z"
            fill="white" />
        <path
            d="M41.4204 14.4995L41.1441 16.1832C40.8032 15.7345 40.437 15.4097 39.9535 15.4097C39.3245 15.4097 38.752 15.8867 38.3772 16.5889C37.8554 16.4806 37.3155 16.2968 37.3155 16.2968L37.3153 16.3011C37.3574 15.9086 37.3741 15.6691 37.3704 15.5878H36.2254C36.0695 17.0545 35.7923 18.5401 35.5757 20.0086L35.5186 20.327H36.7654C36.9339 19.2328 37.0629 18.3243 37.1577 17.6038C37.5837 17.2187 37.7969 16.8827 38.2273 16.9051C38.0368 17.3663 37.9251 17.8973 37.9251 18.4422C37.9251 19.627 38.5243 20.4086 39.4305 20.4086C39.8873 20.4086 40.2378 20.251 40.5798 19.8857L40.5214 20.3263H41.7006L42.65 14.4995H41.4204ZM39.8615 19.2318C39.4371 19.2318 39.2229 18.9176 39.2229 18.2976C39.2229 17.3662 39.624 16.7056 40.1896 16.7056C40.6178 16.7056 40.8497 17.0322 40.8497 17.6341C40.8498 18.5737 40.4423 19.2318 39.8615 19.2318Z"
            fill="black" />
        <path
            d="M14.9167 17.8694C14.786 17.8543 14.7282 17.8502 14.6387 17.8502C13.9321 17.8502 13.5746 18.0927 13.5746 18.5713C13.5746 18.866 13.7493 19.0543 14.0211 19.0543C14.5293 19.0543 14.8953 18.5706 14.9167 17.8694ZM15.8237 19.9804H14.7908L14.8143 19.49C14.4995 19.8774 14.0787 20.0628 13.508 20.0628C12.8321 20.0628 12.3691 19.5348 12.3691 18.7681C12.3691 17.6141 13.1746 16.9414 14.5579 16.9414C14.6992 16.9414 14.8804 16.9542 15.0657 16.978C15.1043 16.8217 15.1144 16.7548 15.1144 16.6703C15.1144 16.3562 14.8975 16.2396 14.3151 16.2396C13.705 16.2326 13.2023 16.385 12.9955 16.4522C13.0085 16.3737 13.1682 15.3873 13.1682 15.3873C13.7892 15.2044 14.1994 15.1358 14.66 15.1358C15.7307 15.1358 16.2978 15.617 16.2968 16.5249C16.2986 16.7694 16.2581 17.0697 16.1955 17.4641C16.0875 18.1505 15.8551 19.6225 15.8237 19.9804ZM32.5437 14.3105L32.3395 15.5756C31.8949 15.3519 31.5719 15.2607 31.226 15.2607C30.2952 15.2607 29.6428 16.1604 29.6428 17.4435C29.6428 18.3281 30.0814 18.8631 30.8059 18.8631C31.113 18.8631 31.4517 18.7676 31.8648 18.5638L31.6461 19.8918C31.1865 20.0172 30.8902 20.0628 30.5441 20.0628C29.2024 20.0628 28.366 19.0974 28.366 17.547C28.366 15.4638 29.5212 14.0078 31.1735 14.0078C31.7176 14.0079 32.3608 14.2388 32.5437 14.3105ZM34.555 17.8694C34.4244 17.8543 34.3668 17.8502 34.2769 17.8502C33.5706 17.8502 33.2129 18.0927 33.2129 18.5713C33.2129 18.866 33.3875 19.0543 33.6597 19.0543C34.1674 19.0543 34.5336 18.5706 34.555 17.8694ZM35.462 19.9804H34.4289L34.4525 19.49C34.1376 19.8774 33.7169 20.0628 33.1463 20.0628C32.4706 20.0628 32.0074 19.5348 32.0074 18.7681C32.0074 17.6141 32.8131 16.9414 34.1959 16.9414C34.3375 16.9414 34.5184 16.9542 34.7039 16.978C34.7423 16.8217 34.7527 16.7548 34.7527 16.6703C34.7527 16.3562 34.5357 16.2396 33.9533 16.2396C33.3435 16.2326 32.8405 16.385 32.6337 16.4522C32.6468 16.3737 32.8067 15.3873 32.8067 15.3873C33.4278 15.2044 33.8376 15.1358 34.2982 15.1358C35.3691 15.1358 35.936 15.617 35.9347 16.5249C35.9369 16.7694 35.8966 17.0697 35.8337 17.4641C35.7261 18.1505 35.4931 19.6225 35.462 19.9804ZM21.364 19.9086C21.0226 20.0161 20.7566 20.0628 20.4685 20.0628C19.8312 20.0628 19.4834 19.6963 19.4834 19.0218C19.4745 18.8118 19.5753 18.2614 19.6545 17.7585C19.7261 17.3153 20.1947 14.5244 20.1947 14.5244H21.4336L21.2891 15.242H21.9251L21.7558 16.3804H21.1177C20.9738 17.2822 20.7683 18.404 20.7662 18.5532C20.7662 18.7983 20.8968 18.9041 21.1929 18.9041C21.3349 18.9041 21.4448 18.8902 21.529 18.8598L21.364 19.9086ZM25.1632 19.8708C24.7378 20.0009 24.3265 20.0636 23.8915 20.0628C22.5044 20.0614 21.7814 19.3366 21.7814 17.9487C21.7814 16.3281 22.7013 15.1359 23.9499 15.1359C24.9715 15.1359 25.624 15.8033 25.624 16.8511C25.624 17.1988 25.5792 17.538 25.4716 18.0166H23.004C22.9205 18.7041 23.3603 18.9908 24.0811 18.9908C24.5244 18.9908 24.9247 18.899 25.3692 18.6915L25.1632 19.8708ZM24.4665 17.0604C24.474 16.962 24.5982 16.2145 23.8899 16.2145C23.4955 16.2145 23.2132 16.5164 23.0983 17.0604H24.4665ZM16.5715 16.7402C16.5715 17.3395 16.8621 17.7524 17.5209 18.0634C18.0257 18.3007 18.1038 18.3713 18.1038 18.5862C18.1038 18.8817 17.881 19.015 17.3882 19.015C17.0161 19.015 16.6702 18.9569 16.2709 18.8282C16.2709 18.8282 16.1075 19.8726 16.1001 19.9226C16.3828 19.9845 16.6358 20.041 17.397 20.0628C18.7126 20.0628 19.3198 19.5617 19.3198 18.479C19.3198 17.8275 19.0658 17.4454 18.441 17.1583C17.9186 16.9178 17.8581 16.865 17.8581 16.6433C17.8581 16.3873 18.0657 16.2556 18.4684 16.2556C18.7129 16.2556 19.0471 16.2825 19.3642 16.3276L19.5415 15.2281C19.219 15.1769 18.7297 15.1359 18.4447 15.1359C17.0499 15.1359 16.5676 15.8641 16.5715 16.7402ZM42.0596 19.9804H40.8803L40.9389 19.5393C40.5969 19.9052 40.2465 20.0628 39.7896 20.0628C38.8833 20.0628 38.2844 19.2812 38.2844 18.0964C38.2844 16.5201 39.2133 15.1912 40.3128 15.1912C40.7963 15.1912 41.1623 15.3889 41.5029 15.8374L41.7795 14.1537H43.009L42.0596 19.9804ZM40.2209 18.8854C40.8014 18.8854 41.2092 18.2273 41.2092 17.2885C41.2092 16.6865 40.977 16.3599 40.5487 16.3599C39.9834 16.3599 39.5818 17.0202 39.5818 17.9519C39.5817 18.5718 39.7965 18.8854 40.2209 18.8854ZM36.5847 15.242C36.4287 16.7087 36.1515 18.1943 35.9347 19.662L35.8777 19.9804H37.1245C37.5704 17.0828 37.6783 16.5169 38.3775 16.5878C38.4889 15.9948 38.6962 15.4753 38.8508 15.2132C38.3286 15.1044 38.0371 15.3996 37.6554 15.9604C37.6855 15.718 37.7407 15.4826 37.7298 15.242H36.5847ZM26.323 15.242C26.1665 16.7087 25.8893 18.1943 25.6726 19.662L25.6159 19.9804H26.8632C27.3086 17.0828 27.4163 16.5169 28.115 16.5878C28.227 15.9948 28.4344 15.4753 28.5884 15.2132C28.0668 15.1044 27.775 15.3996 27.3936 15.9604C27.4237 15.718 27.4784 15.4826 27.4679 15.242H26.323ZM42.6073 19.6095C42.6073 19.4038 42.7734 19.2383 42.9781 19.2383C43.1826 19.2381 43.3486 19.4038 43.3488 19.6085V19.6095C43.3487 19.8143 43.1828 19.9803 42.9781 19.9804C42.7734 19.9803 42.6075 19.8143 42.6073 19.6095ZM42.9781 19.8913C43.1337 19.8914 43.2597 19.7653 43.2597 19.6097V19.6095C43.2599 19.4538 43.1339 19.3276 42.9783 19.3274H42.9781C42.8223 19.3275 42.6961 19.4538 42.6961 19.6095C42.6962 19.7652 42.8225 19.8913 42.9781 19.8913ZM42.9279 19.7717H42.8519V19.4463H42.9897C43.0183 19.4463 43.0478 19.4468 43.0726 19.4625C43.0992 19.4806 43.1145 19.5116 43.1145 19.5441C43.1145 19.5809 43.0928 19.6153 43.0577 19.6284L43.1179 19.7715H43.0335L42.9836 19.6429H42.9279V19.7715V19.7717ZM42.9279 19.5873H42.9698C42.9854 19.5873 43.0026 19.5885 43.0164 19.5809C43.0289 19.5729 43.0353 19.5578 43.0353 19.5434C43.0347 19.5299 43.0279 19.5175 43.0169 19.5098C43.0039 19.5023 42.9822 19.5044 42.9681 19.5044H42.9279L42.9279 19.5873Z"
            fill="white" />
    </g>
    <g clip-path="url(#clip1_326_2636)">
        <path
            d="M60.4555 0.957031H105.256C106.669 0.957031 107.816 2.10321 107.816 3.51703V30.397C107.816 31.8109 106.669 32.957 105.256 32.957H60.4555C59.0417 32.957 57.8955 31.8109 57.8955 30.397V3.51703C57.8955 2.10321 59.0417 0.957031 60.4555 0.957031Z"
            fill="black" />
        <path
            d="M102.055 16.9579C102.055 23.3025 96.9131 28.4459 90.5687 28.4459C84.2251 28.4459 79.082 23.3028 79.082 16.9579C79.082 10.6129 84.225 5.46924 90.5687 5.46924C96.9133 5.46924 102.055 10.6127 102.055 16.9579Z"
            fill="#D9222A" />
        <path
            d="M81.6953 24.2523C81.3772 23.8664 81.0849 23.46 80.8202 23.0357H84.8913C85.1364 22.6439 85.3574 22.2375 85.5533 21.8189H80.1586C79.9734 21.4232 79.811 21.0172 79.6724 20.6029H86.0389C86.422 19.457 86.6295 18.2317 86.6295 16.9573C86.6295 16.1223 86.5405 15.3085 86.3716 14.5245H79.3406C79.4292 14.1131 79.5405 13.707 79.6739 13.3079H86.0381C85.8992 12.8936 85.737 12.4876 85.5522 12.0917H80.16C80.356 11.6733 80.577 11.2671 80.8216 10.8752H84.8901C84.6249 10.4515 84.3326 10.0456 84.0152 9.65966H81.6967C82.0532 9.22683 82.4406 8.82043 82.8559 8.44366C80.8173 6.59515 78.1111 5.46875 75.1426 5.46875C68.7984 5.46881 63.6553 10.6123 63.6553 16.9574C63.6553 23.302 68.7982 28.4454 75.1426 28.4454C78.1115 28.4454 80.8173 27.3192 82.8559 25.471C83.2719 25.0936 83.6598 24.6863 84.0165 24.2526H81.6953"
            fill="#0097D0" />
        <path
            d="M100.525 23.3596C100.525 23.1548 100.691 22.9886 100.896 22.9886C101.101 22.9886 101.267 23.1548 101.267 23.3596C101.267 23.5646 101.101 23.7308 100.896 23.7308C100.691 23.7308 100.525 23.5646 100.525 23.3597V23.3596ZM100.896 23.6417C101.052 23.6417 101.178 23.5157 101.178 23.3603V23.3596C101.178 23.2042 101.052 23.0782 100.897 23.0782H100.896C100.741 23.0779 100.614 23.2037 100.614 23.3593V23.3596C100.614 23.5153 100.74 23.6416 100.896 23.6417H100.896ZM100.846 23.5225H100.77V23.1966H100.908C100.936 23.1966 100.965 23.1969 100.991 23.2131C101.018 23.2313 101.032 23.2627 101.032 23.2945C101.032 23.3317 101.011 23.3657 100.976 23.3787L101.036 23.5225H100.951L100.902 23.3939H100.846V23.5225ZM100.846 23.3382H100.888C100.904 23.3382 100.92 23.3393 100.934 23.3317C100.947 23.3235 100.954 23.3084 100.954 23.294C100.953 23.2807 100.946 23.2685 100.935 23.2611C100.922 23.2531 100.901 23.2547 100.886 23.2547H100.846V23.3382ZM82.6929 20.0611C82.2019 20.1913 81.7273 20.2547 81.2253 20.2538C79.6243 20.2522 78.7904 19.523 78.7904 18.1289C78.7904 16.4995 79.852 15.3011 81.2929 15.3011C82.4715 15.3011 83.2241 15.9731 83.2241 17.0257C83.2241 17.375 83.1731 17.715 83.0483 18.1966H80.2011C80.0998 18.8771 80.5971 19.1761 81.4435 19.1761C81.9507 19.1761 82.4094 19.0849 82.9171 18.8809L82.6929 20.0611ZM81.9273 17.2355C81.9273 17.1326 82.0857 16.4014 81.2617 16.3854C80.8067 16.3854 80.4803 16.6878 80.3484 17.2355H81.9273ZM83.6574 16.9161C83.6574 17.518 83.9964 17.9337 84.7665 18.2432C85.3553 18.4846 85.4481 18.5541 85.4481 18.7694C85.4481 19.0677 85.1878 19.2049 84.6102 19.2011C84.1763 19.198 83.7806 19.1454 83.3134 19.0158L83.1067 20.1136C83.5219 20.2099 84.1043 20.2416 84.6202 20.2537C86.1579 20.2537 86.8677 19.7502 86.8677 18.6622C86.8677 18.0083 86.5717 17.6233 85.8417 17.3365C85.2313 17.0928 85.1596 17.0397 85.1596 16.8192C85.1596 16.56 85.4014 16.4288 85.8731 16.4288C86.1587 16.4288 86.5502 16.4552 86.9214 16.4996L87.1299 15.3962C86.7516 15.3434 86.1774 15.3013 85.8451 15.3013C84.2163 15.3014 83.6526 16.0348 83.6574 16.9161ZM78.0099 20.175H76.8156L76.8441 19.6745C76.4798 20.0694 75.9948 20.2531 75.3363 20.2531C74.5571 20.2531 74.0233 19.7204 74.0233 18.9542C74.0233 17.7898 74.9513 17.118 76.5468 17.118C76.7107 17.118 76.9193 17.1302 77.1334 17.154C77.1777 16.9983 77.1897 16.9313 77.1897 16.8463C77.1897 16.5276 76.9388 16.4103 76.2673 16.4103C75.6054 16.4129 75.1587 16.5108 74.7443 16.6223L74.9483 15.5535C75.6649 15.3713 76.1342 15.3012 76.6651 15.3012C77.9006 15.3012 78.5531 15.7855 78.5531 16.6961C78.5638 16.9391 78.479 17.4266 78.4366 17.6399C78.3881 17.9505 78.0457 19.7502 78.0099 20.175ZM76.9616 18.0508C76.8102 18.0353 76.7443 18.0308 76.6409 18.0308C75.8262 18.0308 75.4131 18.2732 75.4131 18.7519C75.4131 19.0522 75.6147 19.2405 75.9289 19.2405C76.5142 19.2404 76.9369 18.7507 76.9616 18.0508ZM89.3847 20.0995C88.9927 20.2071 88.6873 20.2537 88.357 20.2537C87.6252 20.2537 87.2258 19.8798 87.2258 19.2137C87.2028 19.0307 87.3815 18.1859 87.422 17.9505C87.4625 17.7142 88.0963 14.271 88.0963 14.271H89.518L89.3027 15.4102H90.0319L89.8337 16.5731H89.1015C89.1015 16.5731 88.6996 18.5911 88.6996 18.7449C88.6996 18.9898 88.8479 19.0961 89.1881 19.0961C89.3511 19.0961 89.4768 19.0809 89.574 19.0518L89.3847 20.0995ZM95.7364 15.3011C94.6945 15.3011 93.8804 15.7299 93.4076 16.4463L93.818 15.3841C93.0617 15.1065 92.5742 15.5025 92.1332 16.0657C92.1332 16.0657 92.0594 16.1593 91.986 16.2449V15.4097H90.6511C90.4703 16.8836 90.1506 18.378 89.9004 19.8542L89.8402 20.1755H91.2762C91.4122 19.4262 91.5242 18.8179 91.6357 18.3331C91.9408 17.0028 92.4541 16.5961 93.2248 16.7758C93.0469 17.1585 92.9493 17.6009 92.9493 18.0913C92.9493 19.2804 93.5952 20.2538 95.1988 20.2538C96.8172 20.2538 97.989 19.3891 97.989 17.4179C97.989 16.2289 97.2082 15.3011 95.7364 15.3011ZM95.3185 19.0974C94.8114 19.1054 94.5039 18.6798 94.5039 18.0433C94.5039 17.2886 94.9527 16.4361 95.6734 16.4361C96.255 16.4361 96.4542 16.8971 96.4542 17.3884C96.4543 18.4622 96.0143 19.0974 95.3185 19.0974ZM73.3543 20.1756H71.9244L72.7743 15.6985L70.8178 20.1756H69.5143L69.2759 15.7244L68.4234 20.1756H67.126L68.2311 14.3518H70.4655L70.6519 17.5983L72.0674 14.3518H74.4814L73.3543 20.1756Z"
            fill="black" />
        <path
            d="M98.0975 19.4454C98.0976 19.2407 98.2636 19.0747 98.4684 19.0745C98.6735 19.0745 98.8394 19.2409 98.8394 19.4454C98.8398 19.6503 98.674 19.8167 98.4691 19.8171C98.2643 19.8175 98.0979 19.6517 98.0975 19.4468V19.4454ZM98.4684 19.7279C98.6243 19.7277 98.7505 19.6013 98.7505 19.4454C98.7504 19.2896 98.6241 19.1636 98.4684 19.1636C98.3127 19.1636 98.1864 19.2897 98.1863 19.4454C98.1864 19.6013 98.3126 19.7277 98.4684 19.7279ZM98.4183 19.6084H98.3423V19.2831H98.4799C98.5087 19.2831 98.538 19.2831 98.5633 19.2991C98.5895 19.317 98.6047 19.3482 98.6047 19.3804C98.6047 19.4175 98.5831 19.4518 98.5482 19.4647L98.6079 19.6084H98.5236L98.4743 19.4799H98.4183V19.6084ZM98.4183 19.4236H98.4604C98.4759 19.4236 98.4927 19.4247 98.5068 19.4175C98.519 19.4088 98.5261 19.3947 98.5258 19.3798C98.5254 19.3666 98.5187 19.3544 98.5076 19.347C98.494 19.3387 98.473 19.3408 98.4588 19.3408H98.4183V19.4236ZM83.0513 19.7023C82.5607 19.8324 82.0857 19.8961 81.5841 19.895C79.983 19.8934 79.1491 19.1641 79.1491 17.7697C79.1491 16.1409 80.2103 14.9421 81.6513 14.9421C82.8302 14.9421 83.5825 15.614 83.5825 16.6665C83.5825 17.0164 83.5313 17.3558 83.4071 17.8377H80.5599C80.4586 18.518 80.9554 18.8175 81.802 18.8175C82.3092 18.8175 82.7676 18.7263 83.2759 18.522L83.0513 19.7023ZM82.2857 16.8767C82.2857 16.774 82.4438 16.0425 81.6202 16.0267C81.1652 16.0267 80.8391 16.3295 80.7068 16.8767H82.2857ZM84.0161 16.5569C84.0161 17.159 84.3545 17.5745 85.1249 17.8847C85.7139 18.1258 85.8064 18.1955 85.8064 18.4102C85.8064 18.7089 85.5463 18.8461 84.9689 18.8422C84.5347 18.8393 84.139 18.7865 83.672 18.6569L83.4649 19.7542C83.8803 19.8513 84.4631 19.8831 84.9787 19.895C86.5163 19.895 87.2264 19.3913 87.2264 18.3033C87.2264 17.6495 86.9302 17.2641 86.1998 16.9777C85.5894 16.734 85.5179 16.6809 85.5179 16.4604C85.5179 16.2011 85.76 16.07 86.2313 16.07C86.5173 16.07 86.9086 16.0966 87.28 16.1411L87.488 15.0374C87.1097 14.9846 86.5358 14.9425 86.2038 14.9425C84.5745 14.9425 84.011 15.6755 84.0161 16.5569ZM78.3686 19.8164H77.174L77.2028 19.3159C76.8382 19.7101 76.3532 19.8941 75.6951 19.8941C74.9158 19.8941 74.3817 19.3612 74.3817 18.5956C74.3817 17.4306 75.3094 16.7591 76.9052 16.7591C77.0691 16.7591 77.2774 16.7713 77.4921 16.7951C77.5363 16.6393 77.5481 16.5727 77.5481 16.4873C77.5481 16.1684 77.2974 16.0513 76.6259 16.0513C75.9641 16.0541 75.5175 16.1521 75.103 16.2633L75.3068 15.1948C76.0236 15.0124 76.4926 14.9423 77.0238 14.9423C78.2593 14.9423 78.9116 15.4265 78.9116 16.3369C78.9223 16.5802 78.8374 17.0673 78.7953 17.2812C78.7465 17.5916 78.4041 19.3913 78.3686 19.8164ZM77.3198 17.6918C77.1689 17.6761 77.1027 17.6718 76.9991 17.6718C76.1849 17.6718 75.7715 17.9142 75.7715 18.3929C75.7715 18.6934 75.9734 18.8815 76.2871 18.8815C76.8729 18.8815 77.2956 18.3916 77.3198 17.6918ZM89.7429 19.7409C89.3512 19.8481 89.0455 19.895 88.7153 19.895C87.9836 19.895 87.5845 19.5209 87.5845 18.8548C87.5613 18.6721 87.7402 17.827 87.7804 17.5916C87.8209 17.3553 88.4548 13.9121 88.4548 13.9121H89.8762L89.6615 15.0513H90.3905L90.1924 16.2142H89.4602C89.4602 16.2142 89.0581 18.2321 89.0581 18.386C89.0581 18.6308 89.2065 18.7367 89.5466 18.7367C89.7093 18.7367 89.8352 18.722 89.9325 18.6925L89.7429 19.7409ZM96.8129 17.0294C96.8129 18.103 96.3726 18.7388 95.6766 18.7388C95.1697 18.746 94.8622 18.3212 94.8622 17.6844C94.8622 16.9297 95.3107 16.0772 96.0315 16.0772C96.6135 16.0772 96.8129 16.5388 96.8129 17.0294ZM98.3475 17.0593C98.3475 15.8702 97.5662 14.9422 96.0951 14.9422C94.4023 14.9422 93.3079 16.0703 93.3079 17.7325C93.3079 18.9215 93.9532 19.8951 95.5575 19.8951C97.1758 19.895 98.3476 19.0303 98.3475 17.0593ZM91.0093 15.0508C90.8288 16.5247 90.509 18.0188 90.2591 19.4956L90.1985 19.8169H91.6344C92.152 16.9652 92.3256 16.1527 93.4098 16.4388L93.9313 15.0892C93.1752 14.8116 92.6881 15.2079 92.2476 15.7713C92.2873 15.5178 92.3623 15.2732 92.3442 15.0508H91.0093ZM73.7127 19.8169H72.2831L73.1327 15.3395L71.1759 19.8169H69.8727L69.6343 15.3654L68.7818 19.8169H67.4844L68.5891 13.9929H70.8241L70.9422 17.5983L72.515 13.9929H74.8398L73.7127 19.8169Z"
            fill="white" />
    </g>
    <g clip-path="url(#clip2_326_2636)">
        <path
            d="M118.375 0.957031H163.175C164.589 0.957031 165.735 2.10321 165.735 3.51703V30.397C165.735 31.8109 164.589 32.957 163.175 32.957H118.375C116.962 32.957 115.815 31.8109 115.815 30.397V3.51703C115.815 2.10321 116.962 0.957031 118.375 0.957031Z"
            fill="#0E4595" />
        <path
            d="M134.58 23.276L136.715 10.7473H140.13L137.994 23.276H134.58ZM150.331 11.0174C149.655 10.7636 148.594 10.4912 147.271 10.4912C143.896 10.4912 141.519 12.1904 141.499 14.6258C141.48 16.4261 143.196 17.4304 144.491 18.0297C145.821 18.6438 146.267 19.0354 146.261 19.5838C146.253 20.4236 145.2 20.8072 144.218 20.8072C142.851 20.8072 142.125 20.6174 141.004 20.1496L140.563 19.9505L140.084 22.7552C140.882 23.1049 142.357 23.4079 143.888 23.4236C147.478 23.4236 149.808 21.7438 149.835 19.1431C149.848 17.7179 148.938 16.6333 146.968 15.7391C145.774 15.1596 145.043 14.7727 145.051 14.1859C145.051 13.6652 145.669 13.1082 147.006 13.1082C148.123 13.091 148.932 13.3345 149.562 13.5882L149.868 13.7329L150.331 11.0174ZM159.119 10.7471H156.48C155.663 10.7471 155.051 10.9703 154.692 11.7861L149.62 23.2677H153.206C153.206 23.2677 153.793 21.7239 153.925 21.385C154.317 21.385 157.801 21.3903 158.299 21.3903C158.401 21.8289 158.714 23.2677 158.714 23.2677H161.883L159.119 10.7468V10.7471ZM154.932 18.8374C155.215 18.1155 156.293 15.3351 156.293 15.3351C156.273 15.3685 156.573 14.6097 156.746 14.1393L156.976 15.2196C156.976 15.2196 157.63 18.2103 157.767 18.8374H154.932ZM131.681 10.7471L128.338 19.2911L127.981 17.5548C127.359 15.5534 125.42 13.3849 123.252 12.2993L126.309 23.2561L129.922 23.252L135.298 10.747H131.681"
            fill="white" />
        <path
            d="M125.218 10.7464H119.712L119.668 11.007C123.952 12.0441 126.787 14.5503 127.964 17.5613L126.766 11.8038C126.559 11.0105 125.96 10.7738 125.218 10.7461"
            fill="#F2AE14" />
    </g>
    <rect x="174.235" y="1.45703" width="49" height="31" rx="3.5" fill="white" />
    <path
        d="M194.413 9.15427L189.707 20.3792H186.635L184.321 11.4193C184.183 10.8676 184.055 10.6711 183.632 10.4345C182.933 10.0506 181.781 9.69614 180.767 9.47925L180.835 9.15427H185.778C186.409 9.15427 186.969 9.57752 187.117 10.2963L188.338 16.7945L191.361 9.15427H194.413ZM198.559 9.15427L196.156 20.3792H193.251L195.654 9.15497L198.559 9.15427ZM206.435 16.7159C206.445 13.7525 202.339 13.5847 202.369 12.2658C202.378 11.8622 202.762 11.439 203.599 11.3302C204.012 11.281 205.164 11.2319 206.464 11.832L206.976 9.44907C206.277 9.19287 205.381 8.95703 204.258 8.95703C201.383 8.95703 199.364 10.483 199.355 12.6687C199.335 14.2831 200.792 15.1893 201.895 15.7206C203.027 16.2723 203.411 16.6268 203.401 17.1188C203.391 17.8671 202.495 18.2019 201.668 18.2215C200.211 18.2412 199.364 17.8277 198.685 17.5126L198.154 19.9742C198.833 20.2893 200.083 20.5554 201.383 20.575C204.436 20.5561 206.425 19.0498 206.435 16.7159ZM214.017 20.3792H216.704L214.361 9.15497H211.879C211.318 9.15497 210.855 9.47995 210.639 9.98182L206.277 20.3792H209.329L209.93 18.7051H213.652L214.017 20.3792ZM210.777 16.4106L212.303 12.1963L213.179 16.4106H210.777ZM202.28 23.4704H201.099V24.5731H202.418V24.9079H200.705V21.8658H202.359V22.2006H201.099V23.1658H202.28V23.4704ZM203.028 21.6882H203.422V24.8981H203.028V21.6882ZM204.427 23.8838C204.436 24.4257 204.771 24.6419 205.175 24.6419C205.46 24.6419 205.637 24.5927 205.785 24.5338L205.854 24.8195C205.717 24.8784 205.47 24.957 205.126 24.957C204.456 24.957 204.052 24.5141 204.052 23.8543C204.052 23.1945 204.436 22.6828 205.076 22.6828C205.795 22.6828 205.983 23.3033 205.983 23.7069C205.983 23.7855 205.983 23.8445 205.973 23.8943H204.427V23.8838H204.427ZM205.598 23.5981C205.598 23.3518 205.49 22.958 205.046 22.958C204.643 22.958 204.465 23.3223 204.436 23.5981H205.598ZM208.138 24.8293C208.03 24.8784 207.803 24.957 207.508 24.957C206.848 24.957 206.415 24.5141 206.415 23.8445C206.415 23.1749 206.878 22.6828 207.587 22.6828C207.823 22.6828 208.029 22.7418 208.138 22.8008L208.05 23.1061C207.952 23.057 207.803 22.998 207.587 22.998C207.085 22.998 206.819 23.3721 206.819 23.8249C206.819 24.3267 207.144 24.6419 207.577 24.6419C207.804 24.6419 207.952 24.5927 208.069 24.5338L208.138 24.8293ZM209.261 22.1908V22.7123H209.832V23.0177H209.261V24.199C209.261 24.4748 209.339 24.6222 209.556 24.6222C209.664 24.6222 209.723 24.6124 209.783 24.5927L209.802 24.8981C209.724 24.9276 209.605 24.957 209.448 24.957C209.261 24.957 209.113 24.8981 209.015 24.79C208.907 24.6721 208.858 24.4748 208.858 24.2186V23.0275H208.523V22.7222H208.858V22.3186L209.261 22.1908ZM210.383 23.3918C210.383 23.1356 210.383 22.9096 210.363 22.7123H210.708L210.728 23.1454H210.737C210.836 22.8499 211.082 22.6632 211.348 22.6632C211.387 22.6632 211.417 22.6632 211.456 22.673V23.0471C211.417 23.0373 211.378 23.0373 211.319 23.0373C211.043 23.0373 210.836 23.2444 210.787 23.5392C210.777 23.5883 210.777 23.6571 210.777 23.7266V24.8882H210.384L210.383 23.3918ZM213.908 23.7855C213.908 24.5927 213.346 24.9472 212.815 24.9472C212.224 24.9472 211.771 24.5141 211.771 23.8249C211.771 23.0963 212.254 22.6632 212.854 22.6632C213.485 22.673 213.908 23.1258 213.908 23.7855ZM212.175 23.815C212.175 24.2972 212.451 24.6517 212.835 24.6517C213.219 24.6517 213.494 24.2972 213.494 23.8052C213.494 23.4311 213.307 22.9685 212.835 22.9685C212.382 22.9685 212.175 23.4016 212.175 23.815ZM214.519 23.3033C214.519 23.0766 214.519 22.8899 214.499 22.7123H214.853L214.873 23.0766H214.883C214.991 22.8696 215.247 22.673 215.602 22.673C215.907 22.673 216.37 22.8499 216.37 23.6087V24.9086H215.976V23.648C215.976 23.2935 215.848 22.998 215.474 22.998C215.218 22.998 215.011 23.1854 214.943 23.4016C214.923 23.4507 214.913 23.5195 214.913 23.589V24.9086H214.519V23.3033H214.519Z"
        fill="#1A1F71" />
    <rect x="174.235" y="1.45703" width="49" height="31" rx="3.5" stroke="#E4E4E7" />
</svg>